<svg xmlns="http://www.w3.org/2000/svg" viewBox="0 0 3334 125" fill-rule="evenodd" stroke-linejoin="round" stroke-miterlimit="2" xmlns:v="https://vecta.io/nano"><text x="62.729" y="120.04" font-family="NotoSansTC-Bold, Noto Sans TC Bold, sans-serif" font-weight="700" font-size="138.646" fill="#fff" transform="matrix(1 0 0 .892857 0 1.00818)">禁<tspan x="312.292 561.854 811.416 1060.98 1310.54 1560.1 1809.67 2059.23 2308.79 2558.35 2807.91 3057.48" y="120.04 120.04 120.04 120.04 120.04 120.04 120.04 120.04 120.04 120.04 120.04 120.04">止酒駕　飲酒過量有害健康</tspan></text><g fill-rule="nonzero"><path d="M1189.91 63.202c0 29.836-24.189 54.016-54.024 54.016s-54.022-24.18-54.022-54.016 24.189-54.025 54.022-54.025 54.024 24.185 54.024 54.025" fill="#fff"/><path d="M1166.01 26.965l-11.038-.06h-10.989s-2.788 8.039-3.661 12.295-2.831 9.5-.488 13.984c2.353 4.483 6.563 6.937 10.108 9.393 3.551 2.458 3.773 2.724 3.879 6.113.112 3.39-.054 17.923-.054 20.098 0 2.182-.461 4.251-1.159 5.26-.685 1.04-1.619 2.009-5.339 2.506-3.718.487-4.848.713-5.146.966-.424.411-.117.938-.117.938s.396.019 12.695.019l12.617-.178s.222-.326-.117-.779c-.322-.434-.651-.533-2.062-.647-1.698-.141-4.538-.319-6.074-1.093-1.521-.769-3.214-1.769-3.214-7.01l.158-19.97c.178-2.025-.11-3.933 3.875-5.89 3.992-1.972 9.963-7.314 11.309-10.77 1.362-3.44-.541-11.313-1.913-15.783-1.362-4.483-3.27-9.392-3.27-9.392m-16.22 64.017c0 2.225-1.822 4.023-4.069 4.023-2.257 0-4.079-1.798-4.079-4.023 0-2.212 1.822-4.014 4.079-4.014 2.247 0 4.069 1.802 4.069 4.014m-28.81 0c0 2.225-1.817 4.023-4.059 4.023-2.256 0-4.071-1.798-4.071-4.023 0-2.212 1.815-4.014 4.071-4.014 2.242 0 4.059 1.802 4.059 4.014m-14.04-4.249c.26-1.824.346-2.008.951-2.53.592-.53 2.265-.853 3.325-1.298 1.043-.477 1.247-1.167 2.377-2.307.014-.029.037-.051.065-.082.804-.904 4.623-3.692 7.586-4.57 2.957-.877 6.926-.512 9.545-.262 2.609.24 3.947 1.274 4.985 1.974l4.821 3.284c.787.567 1.188.708 1.188.708s4.108.211 5.807 1.123c1.681.9 1.78 1.67 1.78 1.67 1.226 1.092 2.058 2.098 2.407 3.361.328 1.247.319 2.285 0 3.144-.354.898-1.003 1.117-1.003 1.117s.569-6.271-4.883-6.314c-5.431-.068-5.583 6.042-5.583 6.042h-18.02c.16-2.847-1.867-6.142-5.279-6.142-5.028-.016-5.241 4.758-5.241 5.616v.126l-.514.01c-.703.019-2.143-.031-3.3-.047-1.904-.059-1.294-2.727-1.014-4.623m-17.2-21.203l-.054-.909c0-.363.595-.285.595-.285s.122-.555.831-1.813c.717-1.259 1.985-2.216 1.985-2.456 0-.227-.082-.791-.328-.909-.231-.122-.266-.914-.266-1.103 0-.2-.118-.24-1.109-.759-.991-.507-.44-.818.631-.818h1.584c-.048-.472.232-.549.588-.64.362-.074.758.28 1.42.317.673.034 2.962.197 3.516.034 1.695-.477 2.497.126 4.361.366l3.633.351c.591.203 1.145.909 1.145 2.217 0 1.301-.514 1.338-.514 1.338s.113 1.186.464 3.121c.357 1.948 1 2.97 1 2.97h2.725s.275.076.871-2.061c.585-2.14.39-6.396.192-7.676-.192-1.241-.433-1.572-.746-1.998-.317-.442-.636-.474-.991-.442-.357.045-.831.247-1.029-.464-.192-.717.986-.752.986-.752l1.111-.767a.23.23 0 0 0 .113-.071l-.907-1.237c-.327.226-.708.343-.863.37-.242.032-.759-.498-.781-1.316 0-.351.235-1.125.717-1.095.494.018 1.581.989 1.348 1.558-.012.019-.021.032-.021.046l1.039 1.397c.413-.222.814-.395 1.205-.493l-.504-.701c-.205.151-.432.224-.528.223-.236-.01-.463-.319-.482-.877-.005-.372.131-.847.451-.825.309.012.935.594.916 1.002l.765 1.031c.789-.117 1.402-.021 1.761.21.667.432.273 1.618.153 2.334-.117.71-1.251.991-1.251.991 1.307.331 2.005 1.011 2.91 2.063 1.098 1.231 1.211 2.274 1.211 2.274s.938-.128 2.901.546c2.101.721 3.015 2.22 3.015 2.22-2.38-1.221-4.448-1.509-6.718-.432-2.449 1.173-3.18 3.406-3.792 5.257-.574 1.852-1.331 2.255-3.031 2.42-1.692.144-9.926.096-9.926.096s.539-1.245.416-2.558c-.064-.674-.155-2.87-2.516-4.432-2.536-1.692-4.606-1.145-5.596-.759-1.054.418-1.924 1.095-2.952 2.569-1.026 1.455-1.935 1.948-1.935 1.948.227-.23.281-.621.281-.621m28.48 1.918a3.27 3.27 0 0 1 3.279-3.27c1.8 0 3.257 1.462 3.257 3.27 0 1.795-1.457 3.266-3.257 3.266-1.816 0-3.279-1.471-3.279-3.266m-1.619-.051c0 2.68 2.192 4.857 4.867 4.857a4.85 4.85 0 0 0 4.847-4.857c0-2.686-2.162-4.868-4.847-4.868a4.88 4.88 0 0 0-4.867 4.868m-23.521.051c0-1.808 1.457-3.27 3.261-3.27s3.278 1.462 3.278 3.27a3.28 3.28 0 0 1-3.278 3.266 3.27 3.27 0 0 1-3.261-3.266m-1.607-.051c0 2.68 2.183 4.857 4.868 4.857 2.67 0 4.861-2.177 4.861-4.857 0-2.686-2.191-4.868-4.861-4.868-2.685 0-4.868 2.182-4.868 4.868" fill="#241813"/><path d="M1187 62.505a50.5 50.5 0 0 1-10.388 30.759l-71.079-71.097c8.533-6.508 19.183-10.386 30.756-10.386 28.002 0 50.711 22.705 50.711 50.724m-101.444 0c0-13.491 5.273-25.752 13.84-34.826l71.703 71.702c-9.076 8.579-21.333 13.845-34.81 13.845-28.024 0-50.733-22.708-50.733-50.721m111.122 0c0-33.306-27.092-60.389-60.389-60.389-33.311 0-60.401 27.083-60.401 60.389s27.09 60.379 60.401 60.379c33.297 0 60.389-27.074 60.389-60.379" fill="#b32a25"/></g></svg>