<svg xmlns="http://www.w3.org/2000/svg" fill-rule="evenodd" stroke-linejoin="round" stroke-miterlimit="2" clip-rule="evenodd" viewBox="0 0 40 40"><path fill="#fff" fill-rule="nonzero" d="M38.6 11.3S35.1 2 21.6 1c0 0-10.2-1-17.9 6.7 0 0-8.2 8 0 19.2 0 0 5.2 5.8 14.5 6.8 0 0 1 .3.2 3.3 0 0-.8 3.1 2 1.6 0 0 14.7-8 18-15 0 0 3.3-5.5.2-12.3zM13.4 21.8l-.1.2H7.6c-.1 0-.2 0-.2-.2v-8.7c0-.1 0-.2.2-.2h1.7s.2 0 .2.2v6.8h3.8l.1.2v1.7zm3.2 0c0 .1 0 .2-.2.2h-1.7a.2.2 0 01-.2-.2V13l.2-.2h1.7c.2 0 .2 0 .2.2v8.7zm9.2 0c0 .1 0 .2-.2.2h-1.7s-.2 0-.2-.2l-3.6-5v5l-.2.2h-1.7l-.2-.2V13c0-.1 0-.2.2-.2h1.7s.2 0 .2.2v.1l3.6 5v-5.1l.2-.2h1.7c.1 0 .2 0 .2.2v8.7zm7.2-7l-.1.2H29v1.4H33l.1.2v1.7l-.1.2H29v1.4H33l.1.2v1.7l-.1.2h-5.6c-.1 0-.2 0-.2-.2v-8.7c0-.1 0-.2.2-.2h5.6l.1.2v1.7z"/></svg>