<svg id="圖層_1" data-name="圖層 1" xmlns="http://www.w3.org/2000/svg" width="362.9787mm" height="105.8593mm" viewBox="0 0 1028.9159 300.0737"><defs><style>.cls-1{fill:#fff;}</style></defs><title>MY9小檔_去背</title><path class="cls-1" d="M960.256,8.5976c-.0535-.0073-.1148-.04-.1614-.04H920.22c-.347-.1247-.5775-.2065-.5775-.2065L904.8486,26.8556H747.4514l2.3679,8.5837h60.3545V80.1105H783.549l-25.15-10.0583V278.3359h3.8471c10.6491,0,17.7528-5.0287,17.7528-6.5085V249.6407H902.1872v27.216h3.55c10.3562,0,18.935-5.62,18.935-7.1v-178.7c6.5085-.8837,10.0583-2.9587,12.1286-5.62l-24.2572-18.935L901.0053,80.1105h-26.63V35.4393h64.5c1.3855,0,4.7317-.17,8.5889-.5124,13.2238,20.4012,26.0867,54.31,26.1347,107.4043v2.2361c-.0922,101.9293-47.4341,133.2608-53.855,133.7093-.0535.0078-.1151.0472-.1613.0472h40.5123c.0466,0,.1079-.0394.1614-.0472,6.4209-.4485,53.7627-31.78,53.8553-133.7093v-2.2361C1014.0187,40.3773,966.6769,9.0467,960.256,8.5976ZM829.9975,35.4393h24.5549V80.1105H829.9975ZM779.9986,88.9869h30.1752v5.3275c0,33.4312-2.959,64.2016-30.1752,87.8678ZM902.1872,240.7643H779.9986v-57.991l2.9592,2.9584c43.1917-22.4845,47.04-57.3952,47.04-91.7152v-5.03h24.5549v60.6525c0,13.0173,2.9584,18.3442,19.2325,18.3442H887.1c5.9131,0,10.9468-.2979,15.0877-.5912Zm0-151.7774V148.16c-1.1819.2975-2.6609.2975-4.1409.5911H879.7021c-4.4379,0-5.3266-1.48-5.3266-5.0293V88.9869Z"/><path class="cls-1" d="M883.6241,207.8675s-.4775.0217-1.2277.0422c-.0442-.0055-.0731-.0422-.1188-.0422,0,0-1.15.0561-2.8988.0729a63.978,63.978,0,0,1-10.0436-.7109c-6.03-1.0731-19.3549-6.32-32.2424-5.9448h-38.83c-.5246,0-4.8969,4.1805-4.8969,9.5406v.12c0,5.36,4.3723,9.5568,4.8969,9.5568h38.83c12.8875.3826,26.2125-4.94,32.2424-5.961a64.4972,64.4972,0,0,1,10.1112-.7146c1.7054.0162,2.8312.0691,2.8312.0691.0454,0,.0743-.0356.1183-.0411.7507.02,1.2282.0411,1.2282.0411a.8879.8879,0,0,0,.9491-.7878v-4.4292A.8942.8942,0,0,0,883.6241,207.8675Z"/><path class="cls-1" d="M709.1325,56.1468c24.5549,15.3852,41.1214-33.1337-27.8114-42.899L678.66,15.6159C690.7883,25.0834,704.987,41.9478,709.1325,56.1468Z"/><path class="cls-1" d="M752.6684,59.7877,748.23,58.6061c-51.185,126.0354-51.185,126.0354-57.1027,137.5732-2.9589,5.918-4.14,6.2109-8.5785,6.2109h-6.6106l1.8485-6.5079a198.9513,198.9513,0,0,0,6.9767-51.4258c0-.3621-.0468-.6764-.0468-.9916,0-.3387.0468-.6692.0468-.9763a196.0505,196.0505,0,0,0-5.4168-45.3L677.8225,91.39c7.2838,7.9493,13.6018,17.5059,16.1154,26.5911,22.966,13.783,38.6826-29.8242-19.8879-39.445C660.4161,36.5507,639.9314,8.6288,636.0189,8.6288L543.21,8.558c-6.8032-.2435-13.6307-.2678-20.4568-.1808-14.11.1735-28.2209,1.0159-42.2683,2.4489C358.9085,23.0782,242.709,76.9135,183.2518,91.2363c-1.26.2834-2.5512.5986-3.756.85a399.541,399.541,0,0,1-40.8189,6.3546,735.18,735.18,0,0,1-113.0452,2.7164,11.1137,11.1137,0,0,0-10.827,11.1975v62.1891a11.1189,11.1189,0,0,0,10.827,11.1969,735.7327,735.7327,0,0,1,113.0452,2.7086,399.5417,399.5417,0,0,1,40.8189,6.3543c1.2048.2519,2.496.5668,3.756.8508,59.4572,14.3141,175.6567,68.1572,297.2334,80.4093,14.0474,1.4257,28.1579,2.2684,42.2683,2.4336,6.8261.0945,13.6536.0781,20.4568-.1735l92.8086-.079c3.9058,0,24.1636-27.803,37.9475-69.6485a25.014,25.014,0,0,1,10.6526,4.15c6.8064,4.7364,8.2859,32.8408,2.6661,63.6112,2.3632,11.24,9.4626,15.3852,16.2687,15.3852,14.2038,0,23.6713-10.063,24.2619-24.8527.8886-26.3322-10.9465-36.6881-11.5379-52.9571,0-7.6951,1.7728-18.6418,4.1409-28.9983C723.6753,168.07,742.3125,97.955,752.6684,59.7877ZM527.9621,197.3893h-49.481v-6.9675q2.371-.2112,4.7936-.4222a18.1451,18.1451,0,0,0,4.278-.8447,7.437,7.437,0,0,0,4.278-3.3251,12.1179,12.1179,0,0,0,1.3919-6.1757V124.8268q0-10.9791-4.8966-16.9436a15.1864,15.1864,0,0,0-12.2159-5.9646,27.9771,27.9771,0,0,0-9.4837,1.5837,29.6758,29.6758,0,0,0-8.1436,4.4338,26.3676,26.3676,0,0,0-5,5.0143,47.1971,47.1971,0,0,0-3.0409,4.4865v61.1614a13.1012,13.1012,0,0,0,1.2369,6.07,8.0726,8.0726,0,0,0,4.2265,3.642,33.3354,33.3354,0,0,0,4.278,1.4252,29.8157,29.8157,0,0,0,5,.6862v6.9675h-48.45v-6.9675q2.3711-.2112,4.5871-.4222a17.7959,17.7959,0,0,0,4.0721-.8447,7.4377,7.4377,0,0,0,4.278-3.3251,12.118,12.118,0,0,0,1.3915-6.1757V124.8268q0-10.9791-4.9092-16.9436a15.2368,15.2368,0,0,0-12.2458-5.9646,27.2812,27.2812,0,0,0-9.5051,1.6366,30.9112,30.9112,0,0,0-8.1656,4.4865,24.8491,24.8491,0,0,0-5.06,5.2253q-2.0684,2.9034-3.101,4.381v60.7392a11.5988,11.5988,0,0,0,1.443,6.0171,9.12,9.12,0,0,0,4.33,3.695,20.9,20.9,0,0,0,4.4327,1.5836,33.5485,33.5485,0,0,0,5.051.7389v6.9675H353.9544v-6.9675q2.371-.2112,4.8966-.4222a18.3882,18.3882,0,0,0,4.3812-.8424,7.43,7.43,0,0,0,4.278-3.3211,12.0966,12.0966,0,0,0,1.3916-6.169V113.9359a12.2689,12.2689,0,0,0-1.4948-6.0614,13.8405,13.8405,0,0,0-4.1748-4.5877,17.4156,17.4156,0,0,0-4.8451-2.0544,30.3677,30.3677,0,0,0-5.979-1.0029V93.262l34.018-2.3225,1.4434,1.4781v14.8849h.7215q2.5771-2.6391,6.2882-6.2283a56.4236,56.4236,0,0,1,6.907-5.8063,32.4641,32.4641,0,0,1,9.02-4.2225,39.08,39.08,0,0,1,11.7-1.6892,27.1911,27.1911,0,0,1,17.009,5.4365,30.8746,30.8746,0,0,1,10.2055,13.1434q3.7045-3.6949,6.5328-6.4926a54.23,54.23,0,0,1,7.4652-5.9645,33.7354,33.7354,0,0,1,9.2086-4.4336,38.6849,38.6849,0,0,1,11.7822-1.6892q12.8661,0,20.38,8.6566,7.5123,8.6562,7.5126,26.6029v53.9826a13.0986,13.0986,0,0,0,1.2371,6.07,8.0721,8.0721,0,0,0,4.2263,3.642,27.3813,27.3813,0,0,0,4.69,1.4252,41.03,41.03,0,0,0,5.206.6862ZM649.4992,96.3821q-3.4494.5666-9.0835,3.9093a20.535,20.535,0,0,0-8.3937,9.4626q-13.6829,31.2768-24.3192,57.0008t-16.155,37.8492a207.8293,207.8293,0,0,1-12.9357,24.7607A74.4569,74.4569,0,0,1,567.5164,243.36a32.3405,32.3405,0,0,1-9.6014,6.4024,24.8144,24.8144,0,0,1-8.9111,1.6434q-8.9685,0-14.0853-4.1929t-5.1169-9.6327a13.41,13.41,0,0,1,3.1623-9.2355,10.085,10.085,0,0,1,7.8764-3.57,13.7306,13.7306,0,0,1,6.319,1.35,17.6706,17.6706,0,0,1,4.7144,3.4848,29.2276,29.2276,0,0,1,3.6794,4.6082q1.9551,2.9255,3.1044,4.8353,5.7421-3.0526,13.7357-15.9428a128.132,128.132,0,0,0,11.556-22.615q-10.923-26.8464-19.7725-48.0315-8.8534-21.1843-18.5075-43.8436a16.3365,16.3365,0,0,0-7.3588-8.1025,30.753,30.753,0,0,0-10.3484-3.6828V89.3562h51.7616v7.9325a37.2834,37.2834,0,0,0-8.2789,1.4165q-4.8294,1.303-4.8292,2.9983a8.5452,8.5452,0,0,0,.5176,2.2664q.517,1.5863,1.2071,3.2814,4.3552,11.2116,13.3045,32.33,8.94,21.1172,13.8748,33.7983,5.181-12.1148,10.76-25.0795,5.5842-12.9679,12.49-30.63.8046-2.15,2.3042-5.9423a18.34,18.34,0,0,0,1.5-6.5137q0-2.9428-5.2321-5.4912a31.5116,31.5116,0,0,0-9.9458-3.1143V89.3562h42.1029Z"/></svg>