<?xml version="1.0" encoding="UTF-8"?>
<svg xmlns="http://www.w3.org/2000/svg" xmlns:xlink="http://www.w3.org/1999/xlink" version="1.1" viewBox="0 0 1028.92 300.07">
  <!-- Generator: Adobe Illustrator 29.5.1, SVG Export Plug-In . SVG Version: 2.1.0 Build 141)  -->
  <defs>
    <style>
      .st0 {
        fill: url(#linear-gradient1);
      }

      .st0, .st1, .st2, .st3 {
        mix-blend-mode: screen;
      }

      .st0, .st1, .st2, .st3, .st4, .st5 {
        opacity: .3;
      }

      .st1 {
        fill: url(#linear-gradient2);
      }

      .st2 {
        fill: url(#linear-gradient6);
      }

      .st6 {
        fill: url(#linear-gradient3);
      }

      .st3 {
        fill: url(#linear-gradient);
      }

      .st7 {
        fill: url(#_未命名漸層_63);
      }

      .st8 {
        fill: url(#_未命名漸層_1021);
      }

      .st9 {
        isolation: isolate;
      }

      .st10 {
        fill: #d6b571;
      }

      .st4 {
        fill: url(#linear-gradient5);
      }

      .st4, .st5 {
        mix-blend-mode: multiply;
      }

      .st5 {
        fill: url(#linear-gradient4);
      }

      .st11 {
        fill: url(#_未命名漸層_632);
      }

      .st12 {
        fill: url(#_未命名漸層_634);
      }

      .st13 {
        fill: url(#_未命名漸層_631);
      }

      .st14 {
        fill: url(#_未命名漸層_633);
      }

      .st15 {
        fill: url(#_未命名漸層_102);
      }

      .st16 {
        fill: url(#_未命名漸層_105);
      }

      .st17 {
        fill: #333;
      }
    </style>
    <linearGradient id="_未命名漸層_63" data-name="未命名漸層 63" x1="377.43" y1="128.39" x2="119.67" y2="314.51" gradientUnits="userSpaceOnUse">
      <stop offset="0" stop-color="#c59147"/>
      <stop offset=".97" stop-color="#d5b36f"/>
      <stop offset="1" stop-color="#d6b571"/>
    </linearGradient>
    <linearGradient id="linear-gradient" x1="377.43" y1="128.39" x2="119.67" y2="314.51" gradientUnits="userSpaceOnUse">
      <stop offset="0" stop-color="#8e54e9"/>
      <stop offset=".59" stop-color="#6567e7"/>
      <stop offset="1" stop-color="#4776e6"/>
    </linearGradient>
    <linearGradient id="_未命名漸層_105" data-name="未命名漸層 105" x1="189.05" y1="28.11" x2="333.74" y2="256.37" gradientUnits="userSpaceOnUse">
      <stop offset="0" stop-color="#646464"/>
      <stop offset=".43" stop-color="#8c8c8c"/>
      <stop offset="1" stop-color="#c8c8c8"/>
    </linearGradient>
    <linearGradient id="linear-gradient1" x1="189.05" y1="28.11" x2="333.74" y2="256.37" gradientUnits="userSpaceOnUse">
      <stop offset="0" stop-color="#4776e6"/>
      <stop offset=".48" stop-color="#479ee6"/>
      <stop offset="1" stop-color="#47cfe6"/>
    </linearGradient>
    <linearGradient id="_未命名漸層_102" data-name="未命名漸層 102" x1="-2.73" y1="218.84" x2="184.27" y2="56.07" gradientUnits="userSpaceOnUse">
      <stop offset="0" stop-color="#646464"/>
      <stop offset=".43" stop-color="#8c8c8c"/>
      <stop offset="1" stop-color="#c8c8c8"/>
    </linearGradient>
    <linearGradient id="_未命名漸層_1021" data-name="未命名漸層 102" x1="13.96" y1="238.02" x2="200.96" y2="75.25" xlink:href="#_未命名漸層_102"/>
    <linearGradient id="linear-gradient2" x1="7.87" y1="230.72" x2="192.15" y2="70.32" xlink:href="#linear-gradient1"/>
    <linearGradient id="linear-gradient3" x1="58.05" y1="242.31" x2="79.21" y2="223.89" xlink:href="#linear-gradient1"/>
    <linearGradient id="_未命名漸層_631" data-name="未命名漸層 63" x1="319.54" y1="48.21" x2="61.78" y2="234.33" xlink:href="#_未命名漸層_63"/>
    <linearGradient id="linear-gradient4" x1="306.53" y1="37.93" x2="58.87" y2="216.76" xlink:href="#linear-gradient"/>
    <linearGradient id="_未命名漸層_632" data-name="未命名漸層 63" x1="64.61" y1="190.23" x2="266.89" y2="24.83" xlink:href="#_未命名漸層_63"/>
    <linearGradient id="linear-gradient5" x1="80.3" y1="182.85" x2="213.15" y2="74.21" xlink:href="#linear-gradient"/>
    <linearGradient id="_未命名漸層_633" data-name="未命名漸層 63" x1="98.38" y1="70.4" x2="130.83" y2="43.87" xlink:href="#_未命名漸層_63"/>
    <linearGradient id="_未命名漸層_634" data-name="未命名漸層 63" x1="296.79" y1="237.86" x2="134.02" y2="50.33" xlink:href="#_未命名漸層_63"/>
    <linearGradient id="linear-gradient6" x1="303.41" y1="232.3" x2="144.89" y2="49.66" xlink:href="#linear-gradient"/>
  </defs>
  <g class="st9">
    <g id="_圖層_1" data-name="圖層_1">
      <g>
        <g>
          <g>
            <path class="st7" d="M241.54,100.72c93.23,5.63,158.2,137.74,158.2,137.74h-31.78s-57.04-118.32-127.1-137.64c.22-.03.45-.07.68-.1Z"/>
            <path class="st3" d="M241.54,100.72c-.23.03-.46.07-.68.1.33.09.65.2.97.29,90.57,9.62,148.55,137.35,148.55,137.35h9.36s-64.97-132.11-158.2-137.74Z"/>
          </g>
          <g>
            <path class="st16" d="M186.1,80.56c100.21,6.46,170.05,157.9,170.05,157.9h-36.21s-59.26-135.64-134.56-157.78c.23-.03.48-.08.73-.12Z"/>
            <path class="st0" d="M186.1,80.56c-.25.03-.49.08-.73.12.15.04.3.1.44.14,98.51,9.21,161.72,157.64,161.72,157.64h8.61s-69.83-151.44-170.05-157.9Z"/>
          </g>
          <g>
            <path class="st15" d="M185.37,81.47c-46.51,2.56-74.7,24.14-91.71,50.56-1.57-7.61-2.48-14.61-2.76-20.95,22.22-20.58,52.55-34.01,93.75-29.72.24.04.5.07.73.11Z"/>
            <path class="st8" d="M71.58,191.19c-4.79,26.47-3.36,47.27-3.36,47.27h-36.21s5.35-46.94,29.63-89.62c2.16,14.65,5.88,29.23,9.94,42.35Z"/>
            <g>
              <path class="st1" d="M61.03,149.94c-23.74,42.39-29.02,88.52-29.02,88.52h6.6c.49-7.68,3.94-49.01,22.42-88.52Z"/>
              <path class="st6" d="M56.71,238.46h11.52s-.02-.28-.05-.81l-11.47.81Z"/>
            </g>
          </g>
          <path class="st13" d="M216.11,102.68c-10.34,1.74-19.42,5.04-27.42,9.5-46.23,25.71-56.02,89.96-58.1,115.52-4.25-8.1-11.08-21.7-17.85-37.63,12.8-31.53,35.04-69.34,70.97-83.56,9.2-3.64,19.31-5.73,30.37-5.78.69.65,1.36,1.31,2.03,1.96Z"/>
          <path class="st5" d="M180.9,109.16c8.92-4.38,18.87-7.22,29.9-8.02.73.63,1.45,1.26,2.17,1.89-1.96.48-3.86,1.03-5.73,1.62,2.86-.78,5.81-1.45,8.88-1.97-.67-.65-1.34-1.31-2.03-1.96-11.06.06-21.17,2.15-30.37,5.78-35.93,14.22-58.17,52.03-70.97,83.56,1.24,2.92,2.49,5.76,3.71,8.51,10.7-33.12,30.18-72.61,64.44-89.42Z"/>
          <g>
            <path class="st11" d="M90.71,67.88c-60.05,35.25,5.09,170.58,5.09,170.58h34.24S38.28,76.41,117.34,62.8c-8.19-1.2-18.49.31-26.63,5.09Z"/>
            <g>
              <path class="st4" d="M94.88,74.63c-35.95,35.96,13.18,139.52,25.48,163.84h9.68S60.22,115.15,94.88,74.63Z"/>
              <path class="st14" d="M108.8,65.1c2.6-.98,5.42-1.77,8.53-2.31-7.21-1.05-16.05,0-23.62,3.52,5.12-1.35,10.38-1.7,15.09-1.21Z"/>
            </g>
          </g>
          <g>
            <path class="st12" d="M304.56,238.46h-45.2s-25.82-73.75-70.67-126.28c-1.64-1.92-3.3-3.82-4.98-5.67-19.09-21.01-41.38-37.8-66.38-43.71.28-.04.52-.11.78-.15,35.73-5.62,68.34,12.05,95.97,38.08.69.65,1.36,1.31,2.03,1.96,54.08,52.24,88.45,135.78,88.45,135.78Z"/>
            <path class="st2" d="M216.11,102.68c-.67-.65-1.34-1.31-2.03-1.96-24.85-23.41-53.73-40.04-85.28-39.07,28.08.95,53.84,17,76.17,39.07.66.65,1.3,1.31,1.94,1.96,51.56,52.24,84.32,135.78,84.32,135.78h13.34s-34.36-83.54-88.45-135.78Z"/>
          </g>
        </g>
        <g>
          <path class="st10" d="M457.34,128.2c-3.36,0-4.48.07-6.52.33v-11.65c2.44.33,4.01.4,8.62.4h5.27c3.36,0,5.79-.07,8.69-.33-.33,2.5-.46,4.67-.46,8.95v7.37c0,4.67.07,6.78.46,9.81-3.62,2.3-5.4,3.16-8.36,4.15-4.28,1.45-9.08,2.24-13.95,2.24-8.36,0-14.87-2.3-19.55-7.04-5-5-7.77-12.83-7.77-21.85,0-17.31,10.46-28.3,27.05-28.3,8.23,0,14.48,2.57,18.82,7.83,1.78,2.04,2.83,4.01,3.88,7.17l-13.43,3.09c-.72-2.37-1.51-3.62-2.96-4.74-1.71-1.38-3.88-2.04-6.65-2.04-8.42,0-13.03,6.12-13.03,17.18,0,6.12,1.38,10.86,4.01,13.75,2.11,2.3,5.33,3.55,9.48,3.55,3.49,0,6.32-.72,9.54-2.37v-7.5h-3.16Z"/>
          <path class="st10" d="M490.51,148.21c-4.54,0-7.24.07-9.74.2.4-2.3.53-5.2.53-9.61v-34.75c0-4.61-.13-7.44-.53-10.6h14.35c-.46,3.42-.53,5.27-.53,10.4v32.64h15.93c5.59,0,7.83-.07,10.92-.46v12.64c-2.44-.33-5.66-.46-10.92-.46h-20.01Z"/>
          <path class="st10" d="M577.38,120.57c0,17.37-10.6,28.89-26.59,28.89s-26.52-11.25-26.52-28.69,10.4-28.5,26.59-28.5,26.52,11.06,26.52,28.3ZM563.7,120.7c0-10.66-4.87-17.11-12.83-17.11s-12.96,6.52-12.96,17.11,4.94,17.37,12.96,17.37,12.83-6.58,12.83-17.37Z"/>
          <path class="st10" d="M617.2,148.21c-.39-2.11-1.18-4.8-3.22-10.27-2.11-5.73-2.9-7.24-4.54-8.69-1.38-1.25-3.03-1.78-5.13-1.78h-6.71v10.79c0,4.48.13,6.91.53,9.94h-14.15c.4-3.03.53-5,.53-9.87v-35.41c0-4.08-.13-6.52-.53-9.67,2.9.13,5.33.2,9.81.2h17.11c10.66,0,16.85,5.53,16.85,15,0,4.67-1.32,8.36-3.88,10.79-1.65,1.51-3.03,2.24-6.25,3.29,3.36,1.05,4.87,2.57,6.98,7.24.99,2.11,1.91,4.34,4.87,11.45.72,1.84,1.51,3.49,3.16,6.98h-15.4ZM607.86,116.22c3.88,0,6.25-2.37,6.25-6.12s-2.11-5.59-6.19-5.59h-10.33v11.71h10.27Z"/>
          <path class="st10" d="M664.86,138.47c0,3.42.13,6.32.53,9.74h-14.35c.33-3.03.53-6.05.53-9.74v-12.18l-15.14-24.88c-1.18-2.04-2.63-4.21-5.26-7.96h16.65c.72,2.3,1.45,4.01,3.09,6.91l7.3,13.36,7.31-13.29c1.64-3.03,2.57-5.07,3.03-6.98h16.65c-1.91,2.76-4.41,6.52-5.26,7.96l-15.07,24.88v12.18Z"/>
          <path class="st10" d="M721.4,148.21c-5,0-6.91.07-9.74.2.4-2.83.53-5.07.53-9.67v-36c0-3.49-.13-6.32-.53-9.48,3.36.2,4.28.2,9.67.2h17.24c10.66,0,16.91,5.13,16.91,13.82,0,4.01-1.32,7.17-3.82,9.41-1.45,1.25-2.63,1.91-5.33,2.9,3.22.72,4.94,1.51,6.84,3.16,2.83,2.5,4.28,6.05,4.28,10.4,0,9.48-6.71,15.07-18.16,15.07h-17.9ZM736.66,114.58c3.49,0,5.66-2.04,5.66-5.27s-2.04-5.07-5.79-5.07h-11.45v10.33h11.58ZM725.08,137.35h12.11c4.15,0,6.65-2.3,6.65-6.19s-2.5-6.05-6.71-6.05h-12.04v12.24Z"/>
          <path class="st10" d="M797.35,148.21c-.39-2.11-1.18-4.8-3.22-10.27-2.11-5.73-2.9-7.24-4.54-8.69-1.38-1.25-3.03-1.78-5.13-1.78h-6.71v10.79c0,4.48.13,6.91.53,9.94h-14.15c.4-3.03.53-5,.53-9.87v-35.41c0-4.08-.13-6.52-.53-9.67,2.9.13,5.33.2,9.81.2h17.11c10.66,0,16.85,5.53,16.85,15,0,4.67-1.32,8.36-3.88,10.79-1.65,1.51-3.03,2.24-6.25,3.29,3.36,1.05,4.87,2.57,6.98,7.24.99,2.11,1.91,4.34,4.87,11.45.72,1.84,1.51,3.49,3.16,6.98h-15.4ZM788,116.22c3.88,0,6.25-2.37,6.25-6.12s-2.11-5.59-6.19-5.59h-10.33v11.71h10.27Z"/>
          <path class="st10" d="M832.69,93.45c-.39,2.7-.53,4.94-.53,9.74v35.27c0,4.54.13,6.98.53,9.74h-14.48c.4-2.57.53-5.33.53-9.74v-35.27c0-4.94-.13-6.84-.53-9.74h14.48Z"/>
          <path class="st10" d="M841.45,102.93c0-4.48-.13-6.65-.59-9.67,2.63.13,4.28.2,9.74.2h13.75c8.09,0,14.61,2.24,19.02,6.52,4.8,4.74,7.24,11.65,7.24,20.4s-2.63,16.26-7.63,21.26c-4.41,4.34-10.66,6.58-18.49,6.58h-13.89c-5.07,0-6.91.07-9.67.2.39-2.9.53-5.07.53-9.61v-35.87ZM863.29,136.69c4.28,0,7.31-1.12,9.67-3.49,2.7-2.76,4.15-7.17,4.15-12.64s-1.25-9.67-3.82-12.24c-2.3-2.3-5.46-3.36-10.2-3.36h-8.62v31.72h8.82Z"/>
          <path class="st10" d="M929.11,128.2c-3.36,0-4.48.07-6.52.33v-11.65c2.43.33,4.01.4,8.62.4h5.26c3.36,0,5.79-.07,8.69-.33-.33,2.5-.46,4.67-.46,8.95v7.37c0,4.67.07,6.78.46,9.81-3.62,2.3-5.4,3.16-8.36,4.15-4.28,1.45-9.08,2.24-13.95,2.24-8.36,0-14.87-2.3-19.55-7.04-5-5-7.77-12.83-7.77-21.85,0-17.31,10.46-28.3,27.05-28.3,8.23,0,14.48,2.57,18.82,7.83,1.78,2.04,2.83,4.01,3.88,7.17l-13.43,3.09c-.72-2.37-1.51-3.62-2.96-4.74-1.71-1.38-3.88-2.04-6.65-2.04-8.42,0-13.03,6.12-13.03,17.18,0,6.12,1.38,10.86,4.01,13.75,2.11,2.3,5.33,3.55,9.48,3.55,3.49,0,6.32-.72,9.54-2.37v-7.5h-3.16Z"/>
          <path class="st10" d="M993.81,148.67c-2.83-.33-5.2-.46-10.86-.46h-20.73c-5,0-6.84.07-9.67.2.4-2.63.53-5.07.53-9.61v-35.93c0-4.08-.13-6.38-.53-9.61,2.7.13,4.54.2,9.67.2h20.99c4.48,0,6.71-.13,9.81-.46v12.31c-3.03-.33-5.4-.46-9.81-.46h-17.11v9.67h14.21c4.34,0,5.92-.07,9.87-.46v12.17c-3.09-.33-5.33-.46-9.87-.46h-14.21v11.06h16.98c5,0,7.9-.13,10.73-.46v12.31Z"/>
        </g>
        <g>
          <path class="st17" d="M424.76,204.62c-1.3,0-2.2-.29-2.69-.86s-.73-1.45-.73-2.65v-6.84c0-1.58.24-2.61.73-3.1.49-.49,1.39-.73,2.69-.73h25.34v-22.89c.05-.81.39-1.55,1.02-2.2.62-.65,1.48-.98,2.57-.98h9.86c.98,0,1.81.33,2.48.98.68.65,1.02,1.39,1.02,2.2v22.89h25.18c1.41,0,2.36.24,2.85.73.49.49.73,1.52.73,3.1v6.84c0,1.2-.24,2.08-.73,2.65-.49.57-1.44.86-2.85.86h-13.61v19.39h11.81c1.25,0,2.17.24,2.77.73.6.49.9,1.38.9,2.69v7.41c0,1.3-.3,2.17-.9,2.61-.6.43-1.52.65-2.77.65h-24.69c-1.52,0-2.51-.22-2.97-.65-.46-.44-.69-1.3-.69-2.61v-30.23h-7.01v9.86c.05,7.98-1.74,13.89-5.38,17.72-3.64,3.83-8.5,5.72-14.58,5.66h-8.88c-.87-.05-1.6-.35-2.2-.9-.6-.54-.9-1.25-.9-2.12v-7.98c0-.87.3-1.58.9-2.12.6-.54,1.33-.84,2.2-.9h1.22c4.4-.05,7.37-.98,8.92-2.77,1.55-1.79,2.32-4.64,2.32-8.56v-7.9h-13.93ZM424.68,170.81c.05-.81.39-1.55,1.02-2.2.62-.65,1.48-.98,2.57-.98h9.86c.98,0,1.81.33,2.49.98.68.65,1.02,1.38,1.02,2.2v13.2c0,.81-.34,1.55-1.02,2.2-.68.65-1.51.98-2.49.98h-9.86c-1.09,0-1.94-.33-2.57-.98-.63-.65-.96-1.38-1.02-2.2v-13.2ZM475.52,170.81c.05-.81.39-1.55,1.02-2.2.62-.65,1.48-.98,2.57-.98h9.86c.98,0,1.81.33,2.48.98.68.65,1.02,1.38,1.02,2.2v13.2c0,.81-.34,1.55-1.02,2.2-.68.65-1.51.98-2.48.98h-9.86c-1.09,0-1.94-.33-2.57-.98-.63-.65-.96-1.38-1.02-2.2v-13.2Z"/>
          <path class="st17" d="M578.91,193.79v8.15c0,1.3-.21,2.2-.61,2.69-.41.49-1.1.73-2.08.73h-10.27c-1.3,0-2.17-.25-2.61-.73-.44-.49-.65-1.39-.65-2.69v-1.3c0-1.09-.6-1.63-1.79-1.63h-37.8c-1.2,0-1.79.54-1.79,1.63v1.3c0,1.3-.22,2.2-.65,2.69-.43.49-1.3.73-2.61.73h-10.27c-.98,0-1.67-.25-2.08-.73-.41-.49-.61-1.39-.61-2.69v-8.15c0-1.41.2-2.35.61-2.81.41-.46,1.1-.69,2.08-.69h68.44c.98,0,1.67.23,2.08.69.41.46.61,1.4.61,2.81ZM525.05,164.62c.81,0,1.55.34,2.2,1.02.65.68.95,1.45.9,2.32v4.64c.11,2.55.68,4.59,1.71,6.11,1.2,1.58,3.02,2.36,5.46,2.36h2.61c.87.05,1.6.35,2.2.9.6.54.9,1.25.9,2.12v1.22c0,.87-.3,1.58-.9,2.12-.6.54-1.33.84-2.2.9h-4.07c-4.62-.16-8.2-1.36-10.75-3.58-2.55,2.23-6.14,3.42-10.75,3.58h-4.07c-.87-.05-1.6-.35-2.2-.9-.6-.54-.9-1.25-.9-2.12v-1.22c0-.87.3-1.57.9-2.12.6-.54,1.33-.84,2.2-.9h2.61c2.44,0,4.28-.77,5.5-2.32,1.22-1.55,1.83-3.6,1.83-6.15v-4.64c.05-.87.38-1.66.98-2.36.6-.65,1.33-.98,2.2-.98h3.67ZM547.05,201.45c.98,0,1.78.29,2.4.86.62.57.94,1.29.94,2.16v3.58h23.87c.87.05,1.6.41,2.2,1.06.6.65.9,1.41.9,2.28v3.75c0,.87-.3,1.59-.9,2.16s-1.33.86-2.2.86h-17.35c2.77,3.91,7.38,5.92,13.85,6.03h4.56c.98,0,1.82.33,2.53.98.71.65,1.06,1.47,1.06,2.44v4.07c0,1.19-.35,2.09-1.06,2.69-.71.6-1.55.9-2.53.9h-4.56c-7.61,0-14.39-3.23-20.37-9.7v9.86c0,.87-.31,1.59-.94,2.16-.63.57-1.43.86-2.4.86h-10.18c-.98,0-1.75-.29-2.32-.86s-.88-1.29-.94-2.16v-9.7c-6.41,6.36-13.25,9.53-20.53,9.53h-4.81c-.87-.05-1.6-.35-2.2-.9-.6-.54-.9-1.25-.9-2.12v-5.05c0-.87.3-1.58.9-2.12.6-.54,1.33-.84,2.2-.9h4.81c6.41,0,11.05-2.01,13.93-6.03h-17.19c-.81,0-1.52-.29-2.12-.86-.6-.57-.9-1.29-.9-2.16v-3.75c0-.87.3-1.63.9-2.28.6-.65,1.3-1,2.12-1.06h23.79v-3.58c.05-.87.37-1.59.94-2.16s1.34-.86,2.32-.86h10.18ZM515.93,175.21c0,.87-.34,1.63-1.02,2.28-.68.65-1.51.98-2.48.98h-2.77c-1.09,0-1.94-.33-2.57-.98-.63-.65-.96-1.41-1.02-2.28v-7.33c.05-.82.39-1.55,1.02-2.2.62-.65,1.48-.98,2.57-.98h2.77c.98,0,1.81.33,2.48.98.68.65,1.02,1.38,1.02,2.2v7.33ZM530.27,175.21v-7.33c0-.82.34-1.55,1.02-2.2.68-.65,1.51-.98,2.49-.98h2.77c1.09,0,1.94.33,2.57.98.62.65.96,1.38,1.02,2.2v7.33c-.05.87-.39,1.63-1.02,2.28-.63.65-1.48.98-2.57.98h-2.77c-.98,0-1.81-.33-2.49-.98-.68-.65-1.02-1.41-1.02-2.28ZM562.86,164.62c.81,0,1.55.34,2.2,1.02.65.68.95,1.45.9,2.32v4.64c.11,2.55.68,4.59,1.71,6.11,1.19,1.58,3.02,2.36,5.46,2.36h2.61c.87.05,1.6.35,2.2.9.6.54.9,1.25.9,2.12v1.22c0,.87-.3,1.58-.9,2.12-.6.54-1.33.84-2.2.9h-4.07c-4.62-.16-8.2-1.36-10.75-3.58-2.55,2.23-6.14,3.42-10.76,3.58h-4.07c-.87-.05-1.6-.35-2.2-.9-.6-.54-.9-1.25-.9-2.12v-1.22c0-.87.3-1.57.9-2.12.6-.54,1.33-.84,2.2-.9h2.61c2.45,0,4.28-.77,5.5-2.32,1.22-1.55,1.83-3.6,1.83-6.15v-4.64c.05-.87.38-1.66.98-2.36.6-.65,1.33-.98,2.2-.98h3.67ZM553.73,175.21c0,.87-.34,1.63-1.02,2.28-.68.65-1.51.98-2.48.98h-2.77c-1.09,0-1.94-.33-2.57-.98-.63-.65-.96-1.41-1.02-2.28v-7.33c.05-.82.39-1.55,1.02-2.2.62-.65,1.48-.98,2.57-.98h2.77c.98,0,1.8.33,2.48.98.68.65,1.02,1.38,1.02,2.2v7.33ZM568.07,175.21v-7.33c0-.82.34-1.55,1.02-2.2.68-.65,1.51-.98,2.48-.98h2.77c1.09,0,1.94.33,2.57.98.62.65.96,1.38,1.02,2.2v7.33c-.05.87-.39,1.63-1.02,2.28-.63.65-1.48.98-2.57.98h-2.77c-.98,0-1.81-.33-2.48-.98-.68-.65-1.02-1.41-1.02-2.28Z"/>
          <path class="st17" d="M591.54,189.96c-1.3,0-2.2-.29-2.69-.86-.49-.57-.73-1.45-.73-2.65v-5.87c0-1.58.25-2.61.73-3.1.49-.49,1.38-.73,2.69-.73h8.64v-8.88c.05-.82.39-1.55,1.02-2.2.62-.65,1.48-.98,2.57-.98h3.75c.98,0,1.8.33,2.48.98.68.65,1.02,1.38,1.02,2.2v8.88h3.83c1.41,0,2.36.24,2.85.73.49.49.73,1.52.73,3.1v5.87c0,1.2-.24,2.08-.73,2.65-.49.57-1.44.86-2.85.86h-3.83l3.83,3.34c1.41,1.41,2.35,2.34,2.81,2.77.46.43.66,1.3.61,2.61v8.96c.05.98-.26,1.79-.94,2.44-.68.65-1.51.6-2.49-.16l-3.83-3.26v27.86c0,.87-.34,1.63-1.02,2.28-.68.65-1.51.98-2.48.98h-3.75c-1.09,0-1.94-.33-2.57-.98-.63-.65-.96-1.41-1.02-2.28v-23.79l-8.47,14.5c-.98,1.47-1.78,2.02-2.4,1.67-.63-.35-.96-.91-1.02-1.67v-12.22c-.05-1.3.15-2.39.61-3.26.46-.87,1.02-1.9,1.67-3.1l9.61-16.7h-8.64ZM623.88,237.78c-1.3,0-2.2-.31-2.69-.94-.49-.63-.73-1.43-.73-2.4v-24.93c0-1.57.24-2.61.73-3.1.49-.49,1.38-.73,2.69-.73h35.52c1.3,0,2.2.25,2.69.73.49.49.73,1.52.73,3.1v24.93c0,.98-.25,1.78-.73,2.4-.49.62-1.39.94-2.69.94h-3.58c-1.25,0-2.12-.31-2.61-.94-.49-.63-.73-1.43-.73-2.4v-21.18h-21.67v21.18c0,.98-.25,1.78-.73,2.4-.49.62-1.36.94-2.61.94h-3.58ZM649.63,203.32h-15.24c-1.52,0-2.72-.26-3.58-.77-.87-.52-1.3-1.64-1.3-3.38-1.74,1.85-3.69,2.77-5.87,2.77-.87-.05-1.6-.33-2.2-.81-.6-.49-.9-1.11-.9-1.87v-3.5c0-.82.23-1.44.69-1.87.46-.43,1.41-1.14,2.85-2.12,1.44-.98,2.59-3.04,3.46-6.19h-3.34c-1.3,0-2.2-.24-2.69-.73-.49-.49-.73-1.55-.73-3.18,0-1.52.24-2.51.73-2.97.49-.46,1.38-.69,2.69-.69h4.32l.08-1.87h-2.2c-.87-.05-1.6-.33-2.2-.81-.6-.49-.9-1.11-.9-1.87v-2.28c0-.76.3-1.38.9-1.87.6-.49,1.33-.76,2.2-.81h23.06c1.19,0,1.79-.3,1.79-.9s.3-1.21.9-1.83c.6-.62,1.3-.94,2.12-.94h2.44c.87,0,1.6.31,2.2.94.6.63.9,1.43.9,2.4v2.85c.11,1.9-.33,3.26-1.3,4.07-.98.81-2.64,1.17-4.97,1.06h-15.72l-.08,1.87h21.18c1.41,0,2.36.23,2.85.69.49.46.73,1.45.73,2.97,0,1.63-.24,2.69-.73,3.18-.49.49-1.44.73-2.85.73h-4.07c.11,1.74.57,3.07,1.39,3.99,1.03,1.25,2.16,2.17,3.38,2.77s2.06,1.11,2.53,1.55c.46.44.69,1.06.69,1.87v3.5c0,.76-.3,1.39-.9,1.87-.6.49-1.33.76-2.2.81-2.17,0-4.13-.9-5.87-2.69,0,1.63-.27,2.72-.81,3.26s-1.68.82-3.42.82ZM645.72,236.56h-8.07c-1.52,0-2.72-.3-3.58-.9-.87-.6-1.3-1.87-1.3-3.83v-11.73c0-1.74.42-2.99,1.26-3.75.84-.76,2.02-1.14,3.54-1.14h8.07c1.74,0,3,.37,3.79,1.1.79.73,1.18,1.97,1.18,3.71v11.98c0,1.79-.38,3-1.14,3.63-.76.62-2.01.94-3.75.94ZM636.67,187.19h8.96c-.05-.54-.08-1.09-.08-1.63h-8.47c-.11.54-.25,1.09-.41,1.63ZM638.71,196.15h5.87v-1.71h-5.87v1.71ZM640.67,227.93h1.96v-3.99h-1.96v3.99Z"/>
          <path class="st17" d="M674.97,187.68c-1.3,0-2.2-.29-2.69-.86-.49-.57-.73-1.45-.73-2.65v-5.87c0-1.58.25-2.61.73-3.1.49-.49,1.38-.73,2.69-.73h18.74c.16-1.96.27-3.99.33-6.11,0-.87.3-1.63.9-2.28.6-.65,1.3-1,2.12-1.06h9.53c.87.05,1.6.41,2.2,1.06.6.65.9,1.41.9,2.28-.05,2.12-.16,4.16-.33,6.11h33.24c1.41,0,2.36.24,2.85.73s.73,1.52.73,3.1v5.87c0,1.2-.24,2.08-.73,2.65-.49.57-1.44.86-2.85.86h-35.28c-.22.92-.44,1.82-.65,2.69h32.26c.87,0,1.51.22,1.91.65.41.44.61,1.09.61,1.96v42.45c0,.87-.2,1.51-.61,1.92-.41.41-1.05.61-1.91.61h-19.31c-.98,0-1.66-.2-2.04-.61-.38-.41-.57-.96-.57-1.67v-4.89c0-1.03.19-1.79.57-2.28.38-.49,1.06-.73,2.04-.73h6.19v-2.44h-19.8v10.1c0,.87-.15,1.51-.45,1.92-.3.41-.94.61-1.91.61h-10.75c-.87,0-1.51-.2-1.92-.61s-.61-1.05-.61-1.92v-22.57c-4.56,3.8-9.91,5.95-16.05,6.44-.87-.05-1.6-.35-2.2-.9-.6-.54-.9-1.25-.9-2.12v-8.64c0-.87.3-1.58.9-2.12.6-.54,1.33-.84,2.2-.9,6.63-.92,11.51-4.67,14.67-11.24.87-1.79,1.6-3.69,2.2-5.7h-16.21ZM706.01,202.91h19.8v-2.61h-19.8v2.61ZM706.01,215.3h19.8v-2.61h-19.8v2.61Z"/>
          <path class="st17" d="M754.65,168.04c0-1.09.27-1.9.82-2.44.54-.54,1.33-.82,2.36-.82h24.12c1.03,0,1.82.27,2.36.82.54.54.81,1.36.81,2.44v5.21c-.05,1.25-.22,2.23-.49,2.93l-5.05,13.69h2.36c1.03,0,1.82.27,2.36.81.54.54.81,1.36.81,2.44v28.52c0,1.09-.22,1.9-.65,2.44-.44.54-1.28.82-2.53.82h-13.85v9.78c0,1.09-.26,1.9-.77,2.44-.52.54-1.32.82-2.4.82h-7.09c-1.03,0-1.82-.27-2.36-.82-.54-.54-.82-1.36-.82-2.44v-66.65ZM771.11,178.15h-3.01v7.98l3.01-7.98ZM768.09,203.24v8.31h1.96c1.09,0,1.63-.54,1.63-1.63v-6.68h-3.58ZM787.16,168.61c0-1.58.24-2.62.73-3.14.49-.52,1.38-.77,2.69-.77h33.4c1.41,0,2.36.26,2.85.77.49.52.73,1.56.73,3.14v34.63c0,1.2-.24,2.08-.73,2.65-.49.57-1.44.86-2.85.86h-11.16v4.32c-.06,5.76.57,9.45,1.87,11.08l2.85-5.3c.71-1.36,1.3-2.28,1.79-2.77.49-.49,1.25-.73,2.28-.73h5.62c1.3,0,2.08.24,2.32.73.25.49.01,1.41-.69,2.77l-4.16,8.15h2.2c.87.05,1.6.35,2.2.9.6.54.9,1.25.9,2.12v6.68c0,.87-.3,1.58-.9,2.12-.6.54-1.33.84-2.2.9h-8.88c-5.92-.16-10.1-1.79-12.55-4.89-.44-.49-.84-1.14-1.22-1.96v4.32c0,.98-.24,1.67-.73,2.08-.49.41-1.38.61-2.69.61h-10.18c-1.41,0-2.35-.2-2.81-.61-.46-.41-.69-1.1-.69-2.08v-66.56ZM799.22,176.68v3.1h16.29v-3.1h-16.29ZM799.22,191.75v3.1h16.29v-3.1h-16.29ZM799.22,223.2c0,1.2.54,1.79,1.63,1.79.87,0,1.55.08,2.04.24-1.25-3.91-1.87-8.53-1.87-13.85v-4.64h-1.79v16.46Z"/>
          <path class="st17" d="M839.63,234.52l22.81-39.68c.81-1.3,1.44-2.2,1.87-2.69.43-.49,1.25-.73,2.44-.73h12.55c1.3,0,2.17.26,2.61.77.43.52.33,1.4-.33,2.65l-17.35,29.74h24.12l-6.44-14.09c-.65-1.25-.76-2.13-.33-2.65.43-.52,1.3-.77,2.61-.77h12.87c1.19,0,2.01.24,2.44.73.43.49.95,1.39,1.55,2.69l11.08,24.03c.54.92.56,1.74.04,2.44-.52.71-1.26,1.03-2.24.98h-68.11c-.98.05-1.78-.27-2.4-.98-.63-.71-.56-1.52.2-2.44ZM842.48,206.34c-.98.76-1.81.81-2.49.16-.68-.65-.99-1.47-.94-2.44v-12.55c-.05-1.3.15-2.17.61-2.61.46-.43,1.4-1.36,2.81-2.77l23.46-21.02c1.3-.65,2.2-.76,2.69-.33.49.44.73,1.3.73,2.61v13.2c0,1.2-.25,2-.73,2.4-.49.41-1.39,1.24-2.69,2.49l-23.46,20.86ZM908.96,206.34l-23.46-20.86c-1.3-1.25-2.2-2.08-2.69-2.49-.49-.41-.73-1.21-.73-2.4v-13.2c0-1.3.24-2.17.73-2.61.49-.43,1.38-.33,2.69.33l23.46,21.02c1.41,1.41,2.35,2.34,2.81,2.77.46.43.66,1.3.61,2.61v12.55c.05.98-.26,1.79-.94,2.44-.68.65-1.51.6-2.48-.16Z"/>
          <path class="st17" d="M996.87,234.77c0,1.3-.23,2.17-.69,2.61-.46.43-1.45.65-2.97.65h-23.38c-1.25,0-2.17-.22-2.77-.65-.6-.44-.9-1.3-.9-2.61v-5.38c0-1.3.3-2.2.9-2.69.6-.49,1.52-.73,2.77-.73h9.53v-49.21h-54.51c-1.25,0-2.17-.2-2.77-.61-.6-.41-.9-1.1-.9-2.08v-6.03c0-1.3.3-2.17.9-2.61.6-.43,1.52-.65,2.77-.65h68.36c1.52,0,2.54.22,3.06.65.51.44.72,1.3.61,2.61v66.73ZM975.36,189.14c0,1.3-.23,2.17-.69,2.61-.46.44-1.45.65-2.97.65h-43.26c-1.25,0-2.17-.2-2.77-.61-.6-.41-.9-1.1-.9-2.08v-6.03c0-1.3.3-2.17.9-2.61.6-.43,1.52-.65,2.77-.65h43.26c1.52,0,2.54.22,3.06.65.52.44.72,1.3.61,2.61v5.46ZM975.36,219.78c0,1.3-.23,2.17-.69,2.61-.46.44-1.45.65-2.97.65h-43.26c-1.25,0-2.17-.2-2.77-.61s-.9-1.1-.9-2.08v-21.35c0-1.3.3-2.17.9-2.61.6-.43,1.52-.65,2.77-.65h43.26c1.52,0,2.54.22,3.06.65.52.44.72,1.3.61,2.61v20.78ZM957.85,207.72h-15.56v3.34h15.56v-3.34Z"/>
        </g>
      </g>
    </g>
  </g>
</svg>